<?xml version="1.0" encoding="UTF-8"?>
<svg width="800" height="240" viewBox="0 0 800 240" fill="none" xmlns="http://www.w3.org/2000/svg">
  <title>Car Showroom — Logo (Horizontal)</title>
  <desc>A clean blue emblem blending a C with a car silhouette, plus black wordmark.</desc>
  <defs>
    <linearGradient id="g" x1="0" y1="0" x2="0" y2="1">
      <stop offset="0%" stop-color="#2F6CF6"/>
      <stop offset="100%" stop-color="#1E5AEF"/>
    </linearGradient>
  </defs>

  <!-- Emblem background -->
  <g transform="translate(40,40)">
    <!-- Stylized C container -->
    <path d="M120 0c66.274 0 120 53.726 120 120s-53.726 120-120 120H92
             c-50.43 0-92-41.57-92-92s41.57-92 92-92h28z" fill="url(#g)"/>
    <!-- Inner knockout to form the C aperture -->
    <path d="M106 36h-14c-38.659 0-70 31.341-70 70s31.341 70 70 70h14
             c44.183 0 80-35.817 80-80s-35.817-60-80-60z"
          fill="white"/>
    <!-- Car silhouette inside -->
    <path d="M70 120c8-18 32-26 54-26h30c9 0 17 4 22 11l6 9
             c1 2 0 4-2 4h-22c-2 0-4 1-5 3l-4 7c-1 2-3 3-5 3H95
             c-10 0-19-4-25-11-1-1-1-2 0-3z"
          fill="white"/>
    <!-- Small leaf-like accent (as in the reference) -->
    <path d="M126 128c10 0 18 6 18 14 0 1-1 2-2 2h-16c-2 0-3-1-3-3
             0-5 1-9 3-13z" fill="white"/>
  </g>

  <!-- Wordmark -->
  <g font-family="Inter, system-ui, -apple-system, Segoe UI, Roboto, Arial, sans-serif" fill="#0A0A0A">
    <text x="320" y="110" font-size="64" font-weight="600">Car</text>
    <text x="320" y="178" font-size="64" font-weight="700" letter-spacing="0.5">Showroom</text>
  </g>
</svg>
